STARTFONT 2.3
FONT -FontForge-Shadows Into Light-Book-R-Normal--11-110-72-72-P-45-ISO10646-1
SIZE 11 72 72  2
FONTBOUNDINGBOX 16 18 -2 -5
COMMENT "Generated by fontforge, http://fontforge.sourceforge.net"
COMMENT "Copyright (c) 2010, Kimberly Geswein (kimberlygeswein.com)"
STARTPROPERTIES 40
FOUNDRY "FontForge"
FAMILY_NAME "Shadows Into Light"
WEIGHT_NAME "Book"
SLANT "R"
SETWIDTH_NAME "Normal"
ADD_STYLE_NAME ""
PIXEL_SIZE 11
POINT_SIZE 110
RESOLUTION_X 72
RESOLUTION_Y 72
SPACING "P"
AVERAGE_WIDTH 45
CHARSET_REGISTRY "ISO10646"
CHARSET_ENCODING "1"
FONTNAME_REGISTRY ""
CHARSET_COLLECTIONS "ISO8859-2 ISO8859-9 ISO8859-4 ISO10646-1"
BITS_PER_PIXEL 2
FONT_NAME "ShadowsIntoLight"
FACE_NAME "Shadows Into Light"
COPYRIGHT "Copyright (c) 2010, Kimberly Geswein (kimberlygeswein.com)"
FONT_VERSION "001.000"
FONT_ASCENT 9
FONT_DESCENT 2
UNDERLINE_POSITION 0
UNDERLINE_THICKNESS 0
X_HEIGHT 6
CAP_HEIGHT 7
RAW_ASCENT 799
RAW_DESCENT 200
NORM_SPACE 5
RELATIVE_WEIGHT 40
RELATIVE_SETWIDTH 50
SUPERSCRIPT_X 0
SUPERSCRIPT_Y 5
SUPERSCRIPT_SIZE 7
SUBSCRIPT_X 0
SUBSCRIPT_Y 1
SUBSCRIPT_SIZE 7
AVG_LOWERCASE_WIDTH 40
AVG_UPPERCASE_WIDTH 53
ENDPROPERTIES
CHARS 352
STARTCHAR space
ENCODING 32
SWIDTH 450 0
DWIDTH 5 0
BBX 1 1 0 0
BITMAP
00
ENDCHAR
STARTCHAR exclam
ENCODING 33
SWIDTH 137 0
DWIDTH 2 0
BBX 1 5 0 4
BITMAP
40
40
80
80
80
ENDCHAR
STARTCHAR quotedbl
ENCODING 34
SWIDTH 212 0
DWIDTH 2 0
BBX 2 4 0 5
BITMAP
50
50
50
40
ENDCHAR
STARTCHAR numbersign
ENCODING 35
SWIDTH 450 0
DWIDTH 5 0
BBX 4 6 1 1
BITMAP
14
98
94
89
98
44
ENDCHAR
STARTCHAR dollar
ENCODING 36
SWIDTH 445 0
DWIDTH 5 0
BBX 5 10 0 -1
BITMAP
0400
0800
1900
5800
8800
5940
0940
0900
0400
0500
ENDCHAR
STARTCHAR percent
ENCODING 37
SWIDTH 450 0
DWIDTH 5 0
BBX 5 9 0 0
BITMAP
0100
5100
9500
9800
0800
0580
1140
1000
1000
ENDCHAR
STARTCHAR ampersand
ENCODING 38
SWIDTH 356 0
DWIDTH 4 0
BBX 4 5 0 1
BITMAP
04
05
68
68
04
ENDCHAR
STARTCHAR quotesingle
ENCODING 39
SWIDTH 155 0
DWIDTH 2 0
BBX 1 3 0 4
BITMAP
40
80
40
ENDCHAR
STARTCHAR parenleft
ENCODING 40
SWIDTH 291 0
DWIDTH 3 0
BBX 3 9 0 0
BITMAP
08
10
10
40
80
80
80
50
24
ENDCHAR
STARTCHAR parenright
ENCODING 41
SWIDTH 241 0
DWIDTH 3 0
BBX 3 8 0 0
BITMAP
50
20
14
04
04
14
20
10
ENDCHAR
STARTCHAR asterisk
ENCODING 42
SWIDTH 481 0
DWIDTH 5 0
BBX 5 5 0 1
BITMAP
0500
5940
6E40
6940
5400
ENDCHAR
STARTCHAR plus
ENCODING 43
SWIDTH 466 0
DWIDTH 5 0
BBX 5 5 0 1
BITMAP
0400
0440
1940
5800
0400
ENDCHAR
STARTCHAR comma
ENCODING 44
SWIDTH 112 0
DWIDTH 1 0
BBX 1 2 0 -1
BITMAP
80
80
ENDCHAR
STARTCHAR hyphen
ENCODING 45
SWIDTH 399 0
DWIDTH 4 0
BBX 4 2 0 2
BITMAP
05
65
ENDCHAR
STARTCHAR period
ENCODING 46
SWIDTH 128 0
DWIDTH 1 0
BBX 1 1 0 0
BITMAP
40
ENDCHAR
STARTCHAR slash
ENCODING 47
SWIDTH 306 0
DWIDTH 3 0
BBX 3 9 0 -1
BITMAP
04
08
04
10
20
10
40
40
40
ENDCHAR
STARTCHAR zero
ENCODING 48
SWIDTH 308 0
DWIDTH 3 0
BBX 3 6 0 0
BITMAP
14
44
44
44
44
24
ENDCHAR
STARTCHAR one
ENCODING 49
SWIDTH 112 0
DWIDTH 1 0
BBX 1 7 0 0
BITMAP
40
40
40
80
80
80
40
ENDCHAR
STARTCHAR two
ENCODING 50
SWIDTH 512 0
DWIDTH 6 0
BBX 5 7 0 0
BITMAP
0400
2900
4500
0400
0800
1540
2500
ENDCHAR
STARTCHAR three
ENCODING 51
SWIDTH 461 0
DWIDTH 5 0
BBX 5 8 0 0
BITMAP
0500
9500
0800
2940
1080
0080
0200
0800
ENDCHAR
STARTCHAR four
ENCODING 52
SWIDTH 503 0
DWIDTH 6 0
BBX 5 9 0 0
BITMAP
0100
0300
0A00
1600
2240
A640
0200
0200
0200
ENDCHAR
STARTCHAR five
ENCODING 53
SWIDTH 478 0
DWIDTH 5 0
BBX 5 8 0 0
BITMAP
0180
A400
8000
8A00
9200
0200
0900
0400
ENDCHAR
STARTCHAR six
ENCODING 54
SWIDTH 375 0
DWIDTH 4 0
BBX 4 9 0 0
BITMAP
20
20
50
40
41
8A
91
94
64
ENDCHAR
STARTCHAR seven
ENCODING 55
SWIDTH 458 0
DWIDTH 5 0
BBX 5 8 0 0
BITMAP
6A80
0240
0200
0200
0100
0500
0500
0100
ENDCHAR
STARTCHAR eight
ENCODING 56
SWIDTH 333 0
DWIDTH 4 0
BBX 4 8 0 0
BITMAP
18
59
84
84
24
14
14
28
ENDCHAR
STARTCHAR nine
ENCODING 57
SWIDTH 475 0
DWIDTH 5 0
BBX 5 8 0 0
BITMAP
0500
1640
5640
9840
A040
0080
0080
0080
ENDCHAR
STARTCHAR colon
ENCODING 58
SWIDTH 120 0
DWIDTH 1 0
BBX 1 4 0 1
BITMAP
40
00
00
40
ENDCHAR
STARTCHAR semicolon
ENCODING 59
SWIDTH 121 0
DWIDTH 1 0
BBX 1 4 0 -1
BITMAP
40
00
80
80
ENDCHAR
STARTCHAR less
ENCODING 60
SWIDTH 409 0
DWIDTH 5 0
BBX 5 6 0 1
BITMAP
0140
0900
2400
6000
1900
0100
ENDCHAR
STARTCHAR equal
ENCODING 61
SWIDTH 433 0
DWIDTH 5 0
BBX 5 3 0 1
BITMAP
6900
0140
5500
ENDCHAR
STARTCHAR greater
ENCODING 62
SWIDTH 450 0
DWIDTH 5 0
BBX 4 6 0 1
BITMAP
64
06
01
05
24
50
ENDCHAR
STARTCHAR question
ENCODING 63
SWIDTH 445 0
DWIDTH 5 0
BBX 5 10 0 0
BITMAP
6A40
4080
0200
0900
1400
2500
0000
0000
0000
0400
ENDCHAR
STARTCHAR at
ENCODING 64
SWIDTH 945 0
DWIDTH 10 0
BBX 10 10 0 0
BITMAP
006900
024040
086040
216050
116040
485540
890500
800020
600190
1AA500
ENDCHAR
STARTCHAR A
ENCODING 65
SWIDTH 390 0
DWIDTH 4 0
BBX 5 8 0 0
BITMAP
3000
2400
5400
5400
5640
6600
8200
4100
ENDCHAR
STARTCHAR B
ENCODING 66
SWIDTH 537 0
DWIDTH 6 0
BBX 6 8 0 0
BITMAP
5A40
9200
4540
6920
2040
2140
2500
1000
ENDCHAR
STARTCHAR C
ENCODING 67
SWIDTH 487 0
DWIDTH 5 0
BBX 5 8 0 0
BITMAP
0A00
2000
1000
5000
8000
8080
8140
6900
ENDCHAR
STARTCHAR D
ENCODING 68
SWIDTH 554 0
DWIDTH 6 0
BBX 6 8 0 0
BITMAP
2940
6050
2010
2010
2080
1140
1500
1400
ENDCHAR
STARTCHAR E
ENCODING 69
SWIDTH 474 0
DWIDTH 5 0
BBX 5 8 0 0
BITMAP
4500
6000
5000
5500
6400
5040
5600
6400
ENDCHAR
STARTCHAR F
ENCODING 70
SWIDTH 428 0
DWIDTH 5 0
BBX 5 8 0 0
BITMAP
4140
A800
8000
8000
8500
A400
4000
4000
ENDCHAR
STARTCHAR G
ENCODING 71
SWIDTH 591 0
DWIDTH 7 0
BBX 6 8 0 -1
BITMAP
0640
1400
2050
51A0
80A0
8290
6910
0020
ENDCHAR
STARTCHAR H
ENCODING 72
SWIDTH 424 0
DWIDTH 5 0
BBX 5 7 0 0
BITMAP
8200
8200
8200
9A00
A100
4140
4140
ENDCHAR
STARTCHAR I
ENCODING 73
SWIDTH 153 0
DWIDTH 2 0
BBX 2 8 0 0
BITMAP
50
50
50
50
50
50
50
10
ENDCHAR
STARTCHAR J
ENCODING 74
SWIDTH 371 0
DWIDTH 4 0
BBX 4 9 0 -1
BITMAP
04
05
05
02
02
02
02
42
14
ENDCHAR
STARTCHAR K
ENCODING 75
SWIDTH 524 0
DWIDTH 6 0
BBX 6 8 0 0
BITMAP
4000
8100
4500
5800
6000
2000
2550
1000
ENDCHAR
STARTCHAR L
ENCODING 76
SWIDTH 537 0
DWIDTH 6 0
BBX 6 7 0 0
BITMAP
8000
8000
8000
9000
9010
5240
6800
ENDCHAR
STARTCHAR M
ENCODING 77
SWIDTH 682 0
DWIDTH 8 0
BBX 7 9 0 0
BITMAP
4000
A024
5424
4854
5544
5284
5108
5008
6008
ENDCHAR
STARTCHAR N
ENCODING 78
SWIDTH 541 0
DWIDTH 6 0
BBX 6 9 0 0
BITMAP
0040
0080
9040
A050
5850
5550
5190
2090
1010
ENDCHAR
STARTCHAR O
ENCODING 79
SWIDTH 382 0
DWIDTH 4 0
BBX 4 8 0 0
BITMAP
04
26
52
82
82
82
85
64
ENDCHAR
STARTCHAR P
ENCODING 80
SWIDTH 508 0
DWIDTH 6 0
BBX 6 9 0 0
BITMAP
1A80
A050
5080
5240
6400
2000
2000
2000
1000
ENDCHAR
STARTCHAR Q
ENCODING 81
SWIDTH 512 0
DWIDTH 6 0
BBX 5 9 0 0
BITMAP
0100
2540
5040
4040
8040
8240
8180
5180
2940
ENDCHAR
STARTCHAR R
ENCODING 82
SWIDTH 503 0
DWIDTH 6 0
BBX 6 9 0 0
BITMAP
4540
A590
8140
8900
A000
A400
4640
4050
4000
ENDCHAR
STARTCHAR S
ENCODING 83
SWIDTH 541 0
DWIDTH 6 0
BBX 6 8 0 0
BITMAP
0640
2000
8000
8000
5500
0160
0190
1900
ENDCHAR
STARTCHAR T
ENCODING 84
SWIDTH 595 0
DWIDTH 7 0
BBX 8 8 0 0
BITMAP
0669
6640
0100
0140
0140
0080
0080
0080
ENDCHAR
STARTCHAR U
ENCODING 85
SWIDTH 450 0
DWIDTH 5 0
BBX 5 8 0 -1
BITMAP
4040
8180
8180
8240
8240
4580
2480
0040
ENDCHAR
STARTCHAR V
ENCODING 86
SWIDTH 524 0
DWIDTH 6 0
BBX 6 8 0 0
BITMAP
0010
4050
8080
2080
2080
0940
0A00
0600
ENDCHAR
STARTCHAR W
ENCODING 87
SWIDTH 878 0
DWIDTH 10 0
BBX 10 8 0 0
BITMAP
000050
405080
506080
20A040
215540
260A00
1A0600
090000
ENDCHAR
STARTCHAR X
ENCODING 88
SWIDTH 461 0
DWIDTH 5 0
BBX 5 8 0 0
BITMAP
0040
5140
2200
1900
0C00
2500
5200
4140
ENDCHAR
STARTCHAR Y
ENCODING 89
SWIDTH 483 0
DWIDTH 5 0
BBX 5 9 0 0
BITMAP
0040
0080
8080
6140
1A00
0600
0500
0800
0800
ENDCHAR
STARTCHAR Z
ENCODING 90
SWIDTH 670 0
DWIDTH 7 0
BBX 7 8 0 0
BITMAP
5550
0060
0080
0240
0500
1800
2000
AAA8
ENDCHAR
STARTCHAR bracketleft
ENCODING 91
SWIDTH 470 0
DWIDTH 5 0
BBX 5 14 0 -1
BITMAP
0500
9500
8000
8000
4000
4000
5000
5000
1000
1000
1000
1000
2000
2940
ENDCHAR
STARTCHAR backslash
ENCODING 92
SWIDTH 554 0
DWIDTH 6 0
BBX 6 11 0 0
BITMAP
8000
1000
1000
0400
0800
0500
0200
0140
0080
0050
0020
ENDCHAR
STARTCHAR bracketright
ENCODING 93
SWIDTH 512 0
DWIDTH 6 0
BBX 6 14 0 -1
BITMAP
AA80
0080
0080
0080
0080
0080
0080
0080
0080
0080
0080
0050
0050
0690
ENDCHAR
STARTCHAR asciicircum
ENCODING 94
SWIDTH 390 0
DWIDTH 4 0
BBX 4 3 0 7
BITMAP
28
52
41
ENDCHAR
STARTCHAR underscore
ENCODING 95
SWIDTH 612 0
DWIDTH 7 0
BBX 7 2 0 0
BITMAP
01A4
6900
ENDCHAR
STARTCHAR grave
ENCODING 96
SWIDTH 155 0
DWIDTH 2 0
BBX 1 1 0 7
BITMAP
80
ENDCHAR
STARTCHAR a
ENCODING 97
SWIDTH 366 0
DWIDTH 4 0
BBX 4 6 0 0
BITMAP
19
25
59
8A
A2
91
ENDCHAR
STARTCHAR b
ENCODING 98
SWIDTH 442 0
DWIDTH 5 0
BBX 5 9 0 0
BITMAP
5000
5000
4000
8600
A540
9040
8240
8900
A400
ENDCHAR
STARTCHAR c
ENCODING 99
SWIDTH 390 0
DWIDTH 4 0
BBX 4 7 0 0
BITMAP
14
68
40
80
81
42
68
ENDCHAR
STARTCHAR d
ENCODING 100
SWIDTH 316 0
DWIDTH 3 0
BBX 3 11 0 -1
BITMAP
04
08
04
04
28
58
88
88
88
94
04
ENDCHAR
STARTCHAR e
ENCODING 101
SWIDTH 461 0
DWIDTH 5 0
BBX 5 6 0 0
BITMAP
1900
2600
6400
9080
4240
2800
ENDCHAR
STARTCHAR f
ENCODING 102
SWIDTH 345 0
DWIDTH 4 0
BBX 4 10 0 0
BITMAP
18
24
20
20
25
64
20
20
20
20
ENDCHAR
STARTCHAR g
ENCODING 103
SWIDTH 437 0
DWIDTH 5 0
BBX 5 11 0 -5
BITMAP
0B00
2300
5640
8940
A140
1140
0140
0140
0200
0500
1400
ENDCHAR
STARTCHAR h
ENCODING 104
SWIDTH 466 0
DWIDTH 5 0
BBX 5 8 0 0
BITMAP
8000
8000
8100
8980
9480
A080
9080
4080
ENDCHAR
STARTCHAR i
ENCODING 105
SWIDTH 132 0
DWIDTH 1 0
BBX 1 8 0 0
BITMAP
40
00
80
80
80
80
80
80
ENDCHAR
STARTCHAR j
ENCODING 106
SWIDTH 112 0
DWIDTH 1 0
BBX 3 13 -2 -4
BITMAP
04
00
00
04
08
08
08
08
04
04
04
48
14
ENDCHAR
STARTCHAR k
ENCODING 107
SWIDTH 428 0
DWIDTH 5 0
BBX 5 8 0 0
BITMAP
5000
5040
8200
8600
9800
A000
A400
8640
ENDCHAR
STARTCHAR l
ENCODING 108
SWIDTH 137 0
DWIDTH 2 0
BBX 2 9 0 0
BITMAP
40
40
40
40
40
40
40
50
40
ENDCHAR
STARTCHAR m
ENCODING 109
SWIDTH 579 0
DWIDTH 6 0
BBX 6 7 0 0
BITMAP
4000
8440
9C90
6660
6720
6120
5010
ENDCHAR
STARTCHAR n
ENCODING 110
SWIDTH 483 0
DWIDTH 5 0
BBX 5 7 0 0
BITMAP
0100
8A40
8880
A480
6080
6080
5040
ENDCHAR
STARTCHAR o
ENCODING 111
SWIDTH 266 0
DWIDTH 3 0
BBX 3 6 0 0
BITMAP
64
44
88
88
94
A0
ENDCHAR
STARTCHAR p
ENCODING 112
SWIDTH 482 0
DWIDTH 5 0
BBX 5 9 0 -3
BITMAP
4140
A480
8180
8600
A400
9000
8000
8000
8000
ENDCHAR
STARTCHAR q
ENCODING 113
SWIDTH 408 0
DWIDTH 4 0
BBX 5 8 0 -3
BITMAP
1900
2200
8600
8A00
5140
0140
0040
0080
ENDCHAR
STARTCHAR r
ENCODING 114
SWIDTH 396 0
DWIDTH 4 0
BBX 4 6 0 0
BITMAP
46
98
60
60
30
20
ENDCHAR
STARTCHAR s
ENCODING 115
SWIDTH 366 0
DWIDTH 4 0
BBX 4 6 0 0
BITMAP
04
60
80
AA
06
18
ENDCHAR
STARTCHAR t
ENCODING 116
SWIDTH 268 0
DWIDTH 3 0
BBX 4 8 -1 0
BITMAP
14
14
2A
64
14
14
14
14
ENDCHAR
STARTCHAR u
ENCODING 117
SWIDTH 387 0
DWIDTH 4 0
BBX 4 5 0 0
BITMAP
82
82
86
4A
26
ENDCHAR
STARTCHAR v
ENCODING 118
SWIDTH 354 0
DWIDTH 4 0
BBX 4 6 0 0
BITMAP
02
42
52
25
19
09
ENDCHAR
STARTCHAR w
ENCODING 119
SWIDTH 566 0
DWIDTH 6 0
BBX 6 6 0 0
BITMAP
4410
4A20
2960
28A0
1860
0810
ENDCHAR
STARTCHAR x
ENCODING 120
SWIDTH 454 0
DWIDTH 5 0
BBX 5 8 0 -1
BITMAP
0400
0900
9800
2800
0D00
1640
2040
1000
ENDCHAR
STARTCHAR y
ENCODING 121
SWIDTH 363 0
DWIDTH 4 0
BBX 4 10 0 -4
BITMAP
01
82
22
16
0A
06
02
01
01
05
ENDCHAR
STARTCHAR z
ENCODING 122
SWIDTH 618 0
DWIDTH 7 0
BBX 7 6 0 0
BITMAP
0100
6A40
0200
0500
0814
1E94
ENDCHAR
STARTCHAR braceleft
ENCODING 123
SWIDTH 348 0
DWIDTH 4 0
BBX 4 11 0 -1
BITMAP
04
25
10
20
60
50
60
80
80
90
28
ENDCHAR
STARTCHAR bar
ENCODING 124
SWIDTH 137 0
DWIDTH 2 0
BBX 2 9 0 0
BITMAP
40
40
40
40
40
40
40
50
40
ENDCHAR
STARTCHAR braceright
ENCODING 125
SWIDTH 348 0
DWIDTH 4 0
BBX 4 10 0 -1
BITMAP
64
08
04
14
08
18
05
01
05
28
ENDCHAR
STARTCHAR asciitilde
ENCODING 126
SWIDTH 458 0
DWIDTH 5 0
BBX 5 2 0 6
BITMAP
6540
4A00
ENDCHAR
STARTCHAR nonbreakingspace
ENCODING 160
SWIDTH 450 0
DWIDTH 5 0
BBX 1 1 0 0
BITMAP
00
ENDCHAR
STARTCHAR exclamdown
ENCODING 161
SWIDTH 137 0
DWIDTH 2 0
BBX 1 4 0 -1
BITMAP
80
40
40
40
ENDCHAR
STARTCHAR cent
ENCODING 162
SWIDTH 394 0
DWIDTH 4 0
BBX 4 9 0 -1
BITMAP
10
14
69
54
84
85
46
68
04
ENDCHAR
STARTCHAR sterling
ENCODING 163
SWIDTH 539 0
DWIDTH 6 0
BBX 6 8 0 0
BITMAP
0040
0550
0400
6900
2000
2000
2140
2950
ENDCHAR
STARTCHAR currency
ENCODING 164
SWIDTH 500 0
DWIDTH 6 0
BBX 5 6 0 1
BITMAP
1140
2B00
2200
1200
2A00
5500
ENDCHAR
STARTCHAR yen
ENCODING 165
SWIDTH 478 0
DWIDTH 5 0
BBX 5 9 0 0
BITMAP
1140
2240
1A00
0C00
0900
2E40
5900
0800
0800
ENDCHAR
STARTCHAR brokenbar
ENCODING 166
SWIDTH 137 0
DWIDTH 2 0
BBX 2 9 0 0
BITMAP
40
40
40
00
40
40
50
50
40
ENDCHAR
STARTCHAR section
ENCODING 167
SWIDTH 366 0
DWIDTH 4 0
BBX 4 8 0 0
BITMAP
24
80
99
62
88
AA
06
18
ENDCHAR
STARTCHAR dieresis
ENCODING 168
SWIDTH 306 0
DWIDTH 3 0
BBX 2 1 1 7
BITMAP
50
ENDCHAR
STARTCHAR copyright
ENCODING 169
SWIDTH 485 0
DWIDTH 5 0
BBX 5 8 0 0
BITMAP
0500
1980
2980
5580
9080
9680
8600
6900
ENDCHAR
STARTCHAR ordfeminine
ENCODING 170
SWIDTH 227 0
DWIDTH 3 0
BBX 3 3 0 2
BITMAP
20
60
94
ENDCHAR
STARTCHAR guillemotleft
ENCODING 171
SWIDTH 652 0
DWIDTH 7 0
BBX 7 6 0 1
BITMAP
0154
0990
2600
6600
19A0
0110
ENDCHAR
STARTCHAR logicalnot
ENCODING 172
SWIDTH 539 0
DWIDTH 6 0
BBX 5 4 1 1
BITMAP
5500
5540
0040
0040
ENDCHAR
STARTCHAR uni00AD
ENCODING 173
SWIDTH 399 0
DWIDTH 4 0
BBX 4 2 0 2
BITMAP
05
65
ENDCHAR
STARTCHAR registered
ENCODING 174
SWIDTH 382 0
DWIDTH 4 0
BBX 5 7 0 0
BITMAP
1A40
2580
6680
9880
9680
8140
6900
ENDCHAR
STARTCHAR macron
ENCODING 175
SWIDTH 399 0
DWIDTH 4 0
BBX 4 1 0 7
BITMAP
69
ENDCHAR
STARTCHAR degree
ENCODING 176
SWIDTH 201 0
DWIDTH 2 0
BBX 2 2 0 4
BITMAP
60
50
ENDCHAR
STARTCHAR plusminus
ENCODING 177
SWIDTH 466 0
DWIDTH 5 0
BBX 4 5 0 1
BITMAP
04
04
19
58
1A
ENDCHAR
STARTCHAR twosuperior
ENCODING 178
SWIDTH 318 0
DWIDTH 4 0
BBX 3 4 0 2
BITMAP
10
50
10
14
ENDCHAR
STARTCHAR threesuperior
ENCODING 179
SWIDTH 280 0
DWIDTH 3 0
BBX 3 5 0 2
BITMAP
10
50
54
04
10
ENDCHAR
STARTCHAR acute
ENCODING 180
SWIDTH 155 0
DWIDTH 2 0
BBX 2 2 0 6
BITMAP
50
40
ENDCHAR
STARTCHAR mu
ENCODING 181
SWIDTH 387 0
DWIDTH 4 0
BBX 4 7 0 -1
BITMAP
41
82
82
86
9A
90
40
ENDCHAR
STARTCHAR paragraph
ENCODING 182
SWIDTH 447 0
DWIDTH 5 0
BBX 5 7 0 0
BITMAP
6F40
BD40
6640
0640
0240
0240
0140
ENDCHAR
STARTCHAR periodcentered
ENCODING 183
SWIDTH 128 0
DWIDTH 1 0
BBX 1 1 0 2
BITMAP
40
ENDCHAR
STARTCHAR cedilla
ENCODING 184
SWIDTH 322 0
DWIDTH 4 0
BBX 3 4 0 -4
BITMAP
50
28
1C
10
ENDCHAR
STARTCHAR onesuperior
ENCODING 185
SWIDTH 112 0
DWIDTH 1 0
BBX 1 4 0 2
BITMAP
40
40
40
40
ENDCHAR
STARTCHAR ordmasculine
ENCODING 186
SWIDTH 212 0
DWIDTH 2 0
BBX 2 3 0 2
BITMAP
50
50
50
ENDCHAR
STARTCHAR guillemotright
ENCODING 187
SWIDTH 625 0
DWIDTH 7 0
BBX 6 6 0 1
BITMAP
6640
0660
0110
0590
2640
5400
ENDCHAR
STARTCHAR onequarter
ENCODING 188
SWIDTH 678 0
DWIDTH 7 0
BBX 7 9 0 -1
BITMAP
0100
0400
4810
44A0
5120
5664
1020
5010
4000
ENDCHAR
STARTCHAR onehalf
ENCODING 189
SWIDTH 693 0
DWIDTH 8 0
BBX 6 9 0 -1
BITMAP
0100
0100
4500
4540
4940
5440
1040
1150
1000
ENDCHAR
STARTCHAR threequarters
ENCODING 190
SWIDTH 868 0
DWIDTH 10 0
BBX 8 9 0 -1
BITMAP
1410
4414
1928
1164
0199
08D4
0044
0104
0100
ENDCHAR
STARTCHAR questiondown
ENCODING 191
SWIDTH 541 0
DWIDTH 6 0
BBX 5 9 1 0
BITMAP
0400
0000
0000
1400
0500
1800
6000
8000
9640
ENDCHAR
STARTCHAR Agrave
ENCODING 192
SWIDTH 390 0
DWIDTH 4 0
BBX 6 10 0 0
BITMAP
2000
0400
2000
2400
2400
1500
5650
6600
4200
4140
ENDCHAR
STARTCHAR Aacute
ENCODING 193
SWIDTH 390 0
DWIDTH 4 0
BBX 5 10 0 0
BITMAP
2000
1000
3000
2400
5400
5400
5640
6600
8200
4100
ENDCHAR
STARTCHAR Acircumflex
ENCODING 194
SWIDTH 390 0
DWIDTH 4 0
BBX 5 11 0 0
BITMAP
6000
8800
4100
3000
2400
5400
5400
5640
6600
8200
4100
ENDCHAR
STARTCHAR Atilde
ENCODING 195
SWIDTH 390 0
DWIDTH 4 0
BBX 5 11 0 0
BITMAP
A100
4900
0000
3000
2400
5400
5400
5640
6600
8200
4100
ENDCHAR
STARTCHAR Adieresis
ENCODING 196
SWIDTH 390 0
DWIDTH 4 0
BBX 5 10 0 0
BITMAP
4400
0000
3000
2400
5400
5400
5640
6600
8200
4100
ENDCHAR
STARTCHAR Aring
ENCODING 197
SWIDTH 390 0
DWIDTH 4 0
BBX 5 10 0 0
BITMAP
6400
9400
3000
2400
5400
5400
5640
6600
8200
4100
ENDCHAR
STARTCHAR AE
ENCODING 198
SWIDTH 708 0
DWIDTH 8 0
BBX 8 8 0 0
BITMAP
3264
2640
5600
5610
5740
6705
8264
4180
ENDCHAR
STARTCHAR Ccedilla
ENCODING 199
SWIDTH 487 0
DWIDTH 5 0
BBX 5 12 0 -4
BITMAP
0A00
2000
1000
5000
8000
8080
8140
6900
1400
0900
0300
0500
ENDCHAR
STARTCHAR Egrave
ENCODING 200
SWIDTH 474 0
DWIDTH 5 0
BBX 5 10 0 0
BITMAP
1400
0400
4500
6000
5000
5500
6400
5040
5600
6400
ENDCHAR
STARTCHAR Eacute
ENCODING 201
SWIDTH 474 0
DWIDTH 5 0
BBX 5 10 0 0
BITMAP
0800
0400
4500
6000
5000
5500
6400
5040
5600
6400
ENDCHAR
STARTCHAR Ecircumflex
ENCODING 202
SWIDTH 474 0
DWIDTH 5 0
BBX 5 11 0 0
BITMAP
0900
2140
1040
4500
6000
5000
5500
6400
5040
5600
6400
ENDCHAR
STARTCHAR Edieresis
ENCODING 203
SWIDTH 474 0
DWIDTH 5 0
BBX 5 10 0 0
BITMAP
1100
0000
4500
6000
5000
5500
6400
5040
5600
6400
ENDCHAR
STARTCHAR Igrave
ENCODING 204
SWIDTH 153 0
DWIDTH 2 0
BBX 2 10 0 0
BITMAP
80
00
50
50
50
50
50
50
50
10
ENDCHAR
STARTCHAR Iacute
ENCODING 205
SWIDTH 153 0
DWIDTH 2 0
BBX 2 10 0 0
BITMAP
50
40
50
50
50
50
50
50
50
10
ENDCHAR
STARTCHAR Icircumflex
ENCODING 206
SWIDTH 153 0
DWIDTH 2 0
BBX 4 11 -1 0
BITMAP
24
55
41
14
14
14
14
14
14
14
04
ENDCHAR
STARTCHAR Idieresis
ENCODING 207
SWIDTH 153 0
DWIDTH 2 0
BBX 2 10 0 0
BITMAP
50
00
50
50
50
50
50
50
50
10
ENDCHAR
STARTCHAR Eth
ENCODING 208
SWIDTH 554 0
DWIDTH 6 0
BBX 6 8 0 0
BITMAP
2940
6050
2010
2010
2080
7940
1500
1400
ENDCHAR
STARTCHAR Ntilde
ENCODING 209
SWIDTH 541 0
DWIDTH 6 0
BBX 6 10 0 0
BITMAP
6440
4640
0080
9040
A050
5850
5550
5190
2090
1010
ENDCHAR
STARTCHAR Ograve
ENCODING 210
SWIDTH 382 0
DWIDTH 4 0
BBX 4 10 0 0
BITMAP
08
01
04
26
52
82
82
82
85
64
ENDCHAR
STARTCHAR Oacute
ENCODING 211
SWIDTH 382 0
DWIDTH 4 0
BBX 4 9 0 0
BITMAP
14
14
26
52
82
82
82
85
64
ENDCHAR
STARTCHAR Ocircumflex
ENCODING 212
SWIDTH 382 0
DWIDTH 4 0
BBX 4 10 0 0
BITMAP
28
55
45
26
52
82
82
82
85
64
ENDCHAR
STARTCHAR Otilde
ENCODING 213
SWIDTH 382 0
DWIDTH 4 0
BBX 5 10 0 0
BITMAP
2840
4600
0400
2600
5200
8200
8200
8200
8500
6400
ENDCHAR
STARTCHAR Odieresis
ENCODING 214
SWIDTH 382 0
DWIDTH 4 0
BBX 4 9 0 0
BITMAP
11
04
26
52
82
82
82
85
64
ENDCHAR
STARTCHAR multiply
ENCODING 215
SWIDTH 454 0
DWIDTH 5 0
BBX 3 4 1 1
BITMAP
88
60
A0
04
ENDCHAR
STARTCHAR Oslash
ENCODING 216
SWIDTH 382 0
DWIDTH 4 0
BBX 4 9 0 -1
BITMAP
05
2A
56
8A
96
92
A5
74
40
ENDCHAR
STARTCHAR Ugrave
ENCODING 217
SWIDTH 450 0
DWIDTH 5 0
BBX 5 10 0 -1
BITMAP
1400
0400
4040
8180
8180
8240
8240
4580
2480
0040
ENDCHAR
STARTCHAR Uacute
ENCODING 218
SWIDTH 450 0
DWIDTH 5 0
BBX 5 9 0 -1
BITMAP
0500
4440
8180
8180
8240
8240
4580
2480
0040
ENDCHAR
STARTCHAR Ucircumflex
ENCODING 219
SWIDTH 450 0
DWIDTH 5 0
BBX 5 11 0 -1
BITMAP
1800
2200
4000
4040
8180
8180
8240
8240
4580
2480
0040
ENDCHAR
STARTCHAR Udieresis
ENCODING 220
SWIDTH 450 0
DWIDTH 5 0
BBX 5 9 0 -1
BITMAP
1100
4040
8180
8180
8240
8240
4580
2480
0040
ENDCHAR
STARTCHAR Yacute
ENCODING 221
SWIDTH 483 0
DWIDTH 5 0
BBX 5 10 0 0
BITMAP
0100
0440
0080
8080
6140
1A00
0600
0500
0800
0800
ENDCHAR
STARTCHAR Thorn
ENCODING 222
SWIDTH 398 0
DWIDTH 4 0
BBX 4 9 0 0
BITMAP
40
80
AA
91
82
89
A0
80
40
ENDCHAR
STARTCHAR germandbls
ENCODING 223
SWIDTH 537 0
DWIDTH 6 0
BBX 6 8 0 0
BITMAP
5A40
9200
4540
6920
2040
2140
2500
1000
ENDCHAR
STARTCHAR agrave
ENCODING 224
SWIDTH 366 0
DWIDTH 4 0
BBX 4 8 0 0
BITMAP
20
00
19
25
59
8A
A2
91
ENDCHAR
STARTCHAR aacute
ENCODING 225
SWIDTH 366 0
DWIDTH 4 0
BBX 4 8 0 0
BITMAP
08
10
19
25
59
8A
A2
91
ENDCHAR
STARTCHAR acircumflex
ENCODING 226
SWIDTH 366 0
DWIDTH 4 0
BBX 4 10 0 0
BITMAP
24
55
41
00
19
25
59
8A
A2
91
ENDCHAR
STARTCHAR atilde
ENCODING 227
SWIDTH 366 0
DWIDTH 4 0
BBX 5 8 0 0
BITMAP
6540
4A00
1900
2500
5900
8A00
A200
9100
ENDCHAR
STARTCHAR adieresis
ENCODING 228
SWIDTH 366 0
DWIDTH 4 0
BBX 4 8 0 0
BITMAP
14
00
19
25
59
8A
A2
91
ENDCHAR
STARTCHAR aring
ENCODING 229
SWIDTH 366 0
DWIDTH 4 0
BBX 4 8 0 0
BITMAP
14
25
1D
25
59
8A
A2
91
ENDCHAR
STARTCHAR ae
ENCODING 230
SWIDTH 705 0
DWIDTH 8 0
BBX 8 6 0 0
BITMAP
19A4
2664
5B80
8B05
A214
9190
ENDCHAR
STARTCHAR ccedilla
ENCODING 231
SWIDTH 390 0
DWIDTH 4 0
BBX 4 11 0 -4
BITMAP
14
68
40
80
81
42
68
20
19
0A
14
ENDCHAR
STARTCHAR egrave
ENCODING 232
SWIDTH 461 0
DWIDTH 5 0
BBX 5 8 0 0
BITMAP
0800
0400
1900
2600
6400
9080
4240
2800
ENDCHAR
STARTCHAR eacute
ENCODING 233
SWIDTH 461 0
DWIDTH 5 0
BBX 5 8 0 0
BITMAP
0500
0400
1900
2600
6400
9080
4240
2800
ENDCHAR
STARTCHAR ecircumflex
ENCODING 234
SWIDTH 461 0
DWIDTH 5 0
BBX 5 10 0 0
BITMAP
1800
2200
4040
0000
1900
2600
6400
9080
4240
2800
ENDCHAR
STARTCHAR edieresis
ENCODING 235
SWIDTH 461 0
DWIDTH 5 0
BBX 5 8 0 0
BITMAP
1100
0000
1900
2600
6400
9080
4240
2800
ENDCHAR
STARTCHAR igrave
ENCODING 236
SWIDTH 132 0
DWIDTH 1 0
BBX 1 9 0 0
BITMAP
80
40
00
80
80
80
80
80
80
ENDCHAR
STARTCHAR iacute
ENCODING 237
SWIDTH 132 0
DWIDTH 1 0
BBX 2 9 0 0
BITMAP
50
00
00
80
80
80
80
80
80
ENDCHAR
STARTCHAR icircumflex
ENCODING 238
SWIDTH 132 0
DWIDTH 1 0
BBX 4 10 -1 0
BITMAP
24
85
41
00
20
20
20
20
20
20
ENDCHAR
STARTCHAR idieresis
ENCODING 239
SWIDTH 132 0
DWIDTH 1 0
BBX 2 8 0 0
BITMAP
50
00
80
80
80
80
80
80
ENDCHAR
STARTCHAR eth
ENCODING 240
SWIDTH 481 0
DWIDTH 5 0
BBX 5 7 0 0
BITMAP
0400
0400
1A40
1200
2A00
5300
2900
ENDCHAR
STARTCHAR ntilde
ENCODING 241
SWIDTH 483 0
DWIDTH 5 0
BBX 5 9 0 0
BITMAP
2840
1640
0100
8A40
8880
A480
6080
6080
5040
ENDCHAR
STARTCHAR ograve
ENCODING 242
SWIDTH 266 0
DWIDTH 3 0
BBX 3 8 0 0
BITMAP
50
10
64
44
88
88
94
A0
ENDCHAR
STARTCHAR oacute
ENCODING 243
SWIDTH 266 0
DWIDTH 3 0
BBX 3 8 0 0
BITMAP
14
10
64
44
88
88
94
A0
ENDCHAR
STARTCHAR ocircumflex
ENCODING 244
SWIDTH 266 0
DWIDTH 3 0
BBX 4 10 -1 0
BITMAP
18
22
40
00
19
11
22
22
25
28
ENDCHAR
STARTCHAR otilde
ENCODING 245
SWIDTH 266 0
DWIDTH 3 0
BBX 4 9 0 0
BITMAP
A1
19
00
64
44
88
88
94
A0
ENDCHAR
STARTCHAR odieresis
ENCODING 246
SWIDTH 266 0
DWIDTH 3 0
BBX 3 8 0 0
BITMAP
44
00
64
44
88
88
94
A0
ENDCHAR
STARTCHAR divide
ENCODING 247
SWIDTH 345 0
DWIDTH 4 0
BBX 4 4 0 1
BITMAP
10
59
00
10
ENDCHAR
STARTCHAR oslash
ENCODING 248
SWIDTH 266 0
DWIDTH 3 0
BBX 3 8 0 -1
BITMAP
04
68
58
98
98
94
A0
40
ENDCHAR
STARTCHAR ugrave
ENCODING 249
SWIDTH 387 0
DWIDTH 4 0
BBX 4 8 0 0
BITMAP
14
04
00
82
82
86
4A
26
ENDCHAR
STARTCHAR uacute
ENCODING 250
SWIDTH 387 0
DWIDTH 4 0
BBX 4 8 0 0
BITMAP
08
04
00
82
82
86
4A
26
ENDCHAR
STARTCHAR ucircumflex
ENCODING 251
SWIDTH 387 0
DWIDTH 4 0
BBX 4 10 0 0
BITMAP
28
51
41
00
00
82
82
86
4A
26
ENDCHAR
STARTCHAR udieresis
ENCODING 252
SWIDTH 387 0
DWIDTH 4 0
BBX 4 8 0 0
BITMAP
14
00
00
82
82
86
4A
26
ENDCHAR
STARTCHAR yacute
ENCODING 253
SWIDTH 363 0
DWIDTH 4 0
BBX 4 12 0 -4
BITMAP
08
10
01
82
22
16
0A
06
02
01
01
05
ENDCHAR
STARTCHAR thorn
ENCODING 254
SWIDTH 439 0
DWIDTH 5 0
BBX 5 7 0 0
BITMAP
8540
A040
8200
4800
6000
4000
8000
ENDCHAR
STARTCHAR ydieresis
ENCODING 255
SWIDTH 363 0
DWIDTH 4 0
BBX 4 12 0 -4
BITMAP
14
00
01
82
22
16
0A
06
02
01
01
05
ENDCHAR
STARTCHAR Amacron
ENCODING 256
SWIDTH 390 0
DWIDTH 4 0
BBX 5 9 0 0
BITMAP
6500
3000
2400
5400
5400
5640
6600
8200
4100
ENDCHAR
STARTCHAR amacron
ENCODING 257
SWIDTH 366 0
DWIDTH 4 0
BBX 4 8 0 0
BITMAP
65
00
19
25
59
8A
A2
91
ENDCHAR
STARTCHAR Abreve
ENCODING 258
SWIDTH 390 0
DWIDTH 4 0
BBX 5 10 0 0
BITMAP
5800
1400
3000
2400
5400
5400
5640
6600
8200
4100
ENDCHAR
STARTCHAR abreve
ENCODING 259
SWIDTH 366 0
DWIDTH 4 0
BBX 4 8 0 0
BITMAP
25
04
19
25
59
8A
A2
91
ENDCHAR
STARTCHAR Aogonek
ENCODING 260
SWIDTH 390 0
DWIDTH 4 0
BBX 5 11 0 -3
BITMAP
3000
2400
5400
5400
5640
6600
8200
4100
0200
0500
0280
ENDCHAR
STARTCHAR aogonek
ENCODING 261
SWIDTH 366 0
DWIDTH 4 0
BBX 5 9 0 -3
BITMAP
1900
2500
5900
8A00
A200
9200
0800
0540
0100
ENDCHAR
STARTCHAR Cacute
ENCODING 262
SWIDTH 487 0
DWIDTH 5 0
BBX 5 10 0 0
BITMAP
0500
0400
0A00
2000
1000
5000
8000
8080
8140
6900
ENDCHAR
STARTCHAR cacute
ENCODING 263
SWIDTH 390 0
DWIDTH 4 0
BBX 4 9 0 0
BITMAP
08
10
14
68
40
80
81
42
68
ENDCHAR
STARTCHAR Ccircumflex
ENCODING 264
SWIDTH 487 0
DWIDTH 5 0
BBX 5 11 0 0
BITMAP
1900
2200
1040
0A00
2000
1000
5000
8000
8080
8140
6900
ENDCHAR
STARTCHAR ccircumflex
ENCODING 265
SWIDTH 390 0
DWIDTH 4 0
BBX 4 10 0 0
BITMAP
28
51
41
14
68
40
80
81
42
68
ENDCHAR
STARTCHAR Cdotaccent
ENCODING 266
SWIDTH 487 0
DWIDTH 5 0
BBX 5 10 0 0
BITMAP
0400
0000
0A00
2000
1000
5000
8000
8080
8140
6900
ENDCHAR
STARTCHAR cdotaccent
ENCODING 267
SWIDTH 390 0
DWIDTH 4 0
BBX 4 7 0 0
BITMAP
14
68
80
80
81
42
68
ENDCHAR
STARTCHAR Ccaron
ENCODING 268
SWIDTH 487 0
DWIDTH 5 0
BBX 5 11 0 0
BITMAP
1040
1500
0000
0A00
2000
1000
5000
8000
8080
8140
6900
ENDCHAR
STARTCHAR ccaron
ENCODING 269
SWIDTH 390 0
DWIDTH 4 0
BBX 4 9 0 0
BITMAP
41
24
14
68
40
80
81
42
68
ENDCHAR
STARTCHAR Dcaron
ENCODING 270
SWIDTH 554 0
DWIDTH 6 0
BBX 6 10 0 0
BITMAP
1040
0900
2940
6050
2010
2010
2080
1140
1500
1400
ENDCHAR
STARTCHAR Emacron
ENCODING 274
SWIDTH 474 0
DWIDTH 5 0
BBX 5 9 0 0
BITMAP
5900
4500
6000
5000
5500
6400
5040
5600
6400
ENDCHAR
STARTCHAR emacron
ENCODING 275
SWIDTH 461 0
DWIDTH 5 0
BBX 5 8 0 0
BITMAP
5940
0000
1900
2600
6400
9080
4240
2800
ENDCHAR
STARTCHAR Ebreve
ENCODING 276
SWIDTH 474 0
DWIDTH 5 0
BBX 5 10 0 0
BITMAP
1600
0400
4500
6000
5000
5500
6400
5040
5600
6400
ENDCHAR
STARTCHAR ebreve
ENCODING 277
SWIDTH 461 0
DWIDTH 5 0
BBX 5 8 0 0
BITMAP
1600
0400
1900
2600
6400
9080
4240
2800
ENDCHAR
STARTCHAR Edotaccent
ENCODING 278
SWIDTH 474 0
DWIDTH 5 0
BBX 5 9 0 0
BITMAP
0400
4500
6000
5000
5500
6400
5040
5600
6400
ENDCHAR
STARTCHAR edotaccent
ENCODING 279
SWIDTH 461 0
DWIDTH 5 0
BBX 5 7 0 0
BITMAP
0400
1900
2600
6400
9080
4240
2800
ENDCHAR
STARTCHAR Eogonek
ENCODING 280
SWIDTH 474 0
DWIDTH 5 0
BBX 5 9 0 -1
BITMAP
4500
6000
5000
5500
6400
5040
5600
6800
0680
ENDCHAR
STARTCHAR eogonek
ENCODING 281
SWIDTH 461 0
DWIDTH 5 0
BBX 5 9 0 -3
BITMAP
1900
2600
6400
9080
4240
2800
1000
1600
0400
ENDCHAR
STARTCHAR Ecaron
ENCODING 282
SWIDTH 474 0
DWIDTH 5 0
BBX 5 10 0 0
BITMAP
1100
1500
4900
6000
5000
5500
6400
5040
5600
6400
ENDCHAR
STARTCHAR ecaron
ENCODING 283
SWIDTH 461 0
DWIDTH 5 0
BBX 5 9 0 0
BITMAP
1100
1500
0000
1900
2600
6400
9080
4240
2800
ENDCHAR
STARTCHAR Gcircumflex
ENCODING 284
SWIDTH 591 0
DWIDTH 7 0
BBX 6 11 0 -1
BITMAP
0A00
0480
1040
0640
1400
2050
51A0
80A0
8290
6910
0020
ENDCHAR
STARTCHAR gcircumflex
ENCODING 285
SWIDTH 437 0
DWIDTH 5 0
BBX 5 15 0 -5
BITMAP
1800
1200
4000
0000
0B00
2300
5640
8940
A140
1140
0140
0140
0200
0500
1400
ENDCHAR
STARTCHAR Gbreve
ENCODING 286
SWIDTH 591 0
DWIDTH 7 0
BBX 6 10 0 -1
BITMAP
0580
0100
0640
1400
2050
51A0
80A0
8290
6910
0020
ENDCHAR
STARTCHAR gbreve
ENCODING 287
SWIDTH 437 0
DWIDTH 5 0
BBX 5 14 0 -5
BITMAP
1600
0400
0000
0B00
2300
5640
8940
A140
1140
0140
0140
0200
0500
1400
ENDCHAR
STARTCHAR Gdotaccent
ENCODING 288
SWIDTH 591 0
DWIDTH 7 0
BBX 7 10 0 -1
BITMAP
0100
0000
0640
0800
2014
1070
4060
81A0
6920
0020
ENDCHAR
STARTCHAR gdotaccent
ENCODING 289
SWIDTH 437 0
DWIDTH 5 0
BBX 5 13 0 -5
BITMAP
0500
0000
0B00
2300
5640
8940
A140
1140
0140
0140
0200
0500
1400
ENDCHAR
STARTCHAR Gcommaaccent
ENCODING 290
SWIDTH 591 0
DWIDTH 7 0
BBX 6 10 0 -3
BITMAP
0640
1400
2050
51A0
80A0
8290
6910
0020
0100
0100
ENDCHAR
STARTCHAR Hcircumflex
ENCODING 292
SWIDTH 424 0
DWIDTH 5 0
BBX 5 11 0 0
BITMAP
2800
5100
4100
0000
8200
8200
8200
9A00
A100
4140
4140
ENDCHAR
STARTCHAR hcircumflex
ENCODING 293
SWIDTH 466 0
DWIDTH 5 0
BBX 5 10 0 0
BITMAP
0600
0480
9000
8000
8100
8980
9480
A080
9080
4080
ENDCHAR
STARTCHAR Hbar
ENCODING 294
SWIDTH 424 0
DWIDTH 5 0
BBX 5 7 0 0
BITMAP
8200
9600
9200
9A00
A100
4140
4140
ENDCHAR
STARTCHAR hbar
ENCODING 295
SWIDTH 466 0
DWIDTH 5 0
BBX 6 8 -1 0
BITMAP
2000
2000
6A40
2260
2520
2820
2420
1020
ENDCHAR
STARTCHAR Itilde
ENCODING 296
SWIDTH 153 0
DWIDTH 2 0
BBX 4 11 -1 0
BITMAP
A1
59
00
14
14
14
14
14
14
14
04
ENDCHAR
STARTCHAR itilde
ENCODING 297
SWIDTH 132 0
DWIDTH 1 0
BBX 5 9 -2 0
BITMAP
1440
5640
0000
0800
0800
0800
0800
0800
0800
ENDCHAR
STARTCHAR imacron
ENCODING 299
SWIDTH 132 0
DWIDTH 1 0
BBX 4 8 -1 0
BITMAP
65
00
20
20
20
20
20
20
ENDCHAR
STARTCHAR Ibreve
ENCODING 300
SWIDTH 153 0
DWIDTH 2 0
BBX 3 11 -1 0
BITMAP
58
14
00
14
14
14
14
14
14
14
04
ENDCHAR
STARTCHAR ibreve
ENCODING 301
SWIDTH 132 0
DWIDTH 1 0
BBX 3 9 -1 0
BITMAP
44
28
00
20
20
20
20
20
20
ENDCHAR
STARTCHAR Iogonek
ENCODING 302
SWIDTH 153 0
DWIDTH 2 0
BBX 3 10 0 -2
BITMAP
50
50
50
50
50
50
50
50
80
A4
ENDCHAR
STARTCHAR iogonek
ENCODING 303
SWIDTH 132 0
DWIDTH 1 0
BBX 3 11 -1 -3
BITMAP
10
00
20
20
20
20
20
20
20
54
14
ENDCHAR
STARTCHAR Idotaccent
ENCODING 304
SWIDTH 153 0
DWIDTH 2 0
BBX 2 10 0 0
BITMAP
40
00
40
40
50
50
50
50
50
50
ENDCHAR
STARTCHAR dotlessi
ENCODING 305
SWIDTH 132 0
DWIDTH 1 0
BBX 1 6 0 0
BITMAP
80
80
80
80
80
80
ENDCHAR
STARTCHAR Jcircumflex
ENCODING 308
SWIDTH 371 0
DWIDTH 4 0
BBX 5 12 0 -1
BITMAP
0900
2100
1040
0400
0500
0500
0200
0200
0200
0200
4200
1400
ENDCHAR
STARTCHAR jcircumflex
ENCODING 309
SWIDTH 112 0
DWIDTH 1 0
BBX 5 14 -2 -4
BITMAP
1900
2200
1040
0000
0400
0800
0800
0800
0800
0400
0400
0400
4800
1400
ENDCHAR
STARTCHAR Kcommaaccent
ENCODING 310
SWIDTH 524 0
DWIDTH 6 0
BBX 6 12 0 -4
BITMAP
4000
8100
4500
5800
6000
2000
2550
1000
0000
0400
0400
0400
ENDCHAR
STARTCHAR kcommaaccent
ENCODING 311
SWIDTH 428 0
DWIDTH 5 0
BBX 5 12 0 -4
BITMAP
5000
5040
8200
8600
9800
A000
A400
8640
0000
0800
0800
0400
ENDCHAR
STARTCHAR Lacute
ENCODING 313
SWIDTH 537 0
DWIDTH 6 0
BBX 6 8 0 0
BITMAP
0200
8400
8000
8000
9000
9010
5240
6800
ENDCHAR
STARTCHAR lacute
ENCODING 314
SWIDTH 137 0
DWIDTH 2 0
BBX 2 12 0 0
BITMAP
50
40
00
40
40
40
40
40
40
40
50
40
ENDCHAR
STARTCHAR Lcommaaccent
ENCODING 315
SWIDTH 537 0
DWIDTH 6 0
BBX 6 11 0 -4
BITMAP
8000
8000
8000
9000
9010
5240
6800
0000
0500
0500
0400
ENDCHAR
STARTCHAR lcommaaccent
ENCODING 316
SWIDTH 137 0
DWIDTH 2 0
BBX 2 13 0 -4
BITMAP
40
40
40
40
40
40
40
50
40
00
80
80
40
ENDCHAR
STARTCHAR Lcaron
ENCODING 317
SWIDTH 537 0
DWIDTH 6 0
BBX 6 10 0 0
BITMAP
1100
1500
0000
8000
8000
8000
9000
9010
5240
6800
ENDCHAR
STARTCHAR Ldot
ENCODING 319
SWIDTH 537 0
DWIDTH 6 0
BBX 6 7 0 0
BITMAP
8000
8000
8000
9000
9510
5240
6800
ENDCHAR
STARTCHAR ldot
ENCODING 320
SWIDTH 267 0
DWIDTH 3 0
BBX 3 9 0 0
BITMAP
40
40
40
40
40
40
54
50
40
ENDCHAR
STARTCHAR Lslash
ENCODING 321
SWIDTH 537 0
DWIDTH 6 0
BBX 6 7 0 0
BITMAP
8000
8000
8000
9900
A010
5240
6800
ENDCHAR
STARTCHAR lslash
ENCODING 322
SWIDTH 137 0
DWIDTH 2 0
BBX 4 9 -1 0
BITMAP
10
10
10
10
10
15
A4
14
10
ENDCHAR
STARTCHAR Nacute
ENCODING 323
SWIDTH 541 0
DWIDTH 6 0
BBX 6 9 0 0
BITMAP
0840
0480
9040
A050
5850
5550
5190
2090
1010
ENDCHAR
STARTCHAR nacute
ENCODING 324
SWIDTH 483 0
DWIDTH 5 0
BBX 5 8 0 0
BITMAP
0500
0500
8A40
8880
A480
6080
6080
5040
ENDCHAR
STARTCHAR Ncommaaccent
ENCODING 325
SWIDTH 541 0
DWIDTH 6 0
BBX 6 13 0 -4
BITMAP
0040
0080
9040
A050
5850
5550
5190
2090
1010
0000
0500
0500
0400
ENDCHAR
STARTCHAR ncommaaccent
ENCODING 326
SWIDTH 483 0
DWIDTH 5 0
BBX 5 11 0 -4
BITMAP
0100
8A40
8880
A480
6080
6080
5040
0000
0800
0800
0400
ENDCHAR
STARTCHAR Ncaron
ENCODING 327
SWIDTH 541 0
DWIDTH 6 0
BBX 6 10 0 0
BITMAP
1040
0540
0080
9040
A050
5850
5550
5190
2090
1010
ENDCHAR
STARTCHAR ncaron
ENCODING 328
SWIDTH 483 0
DWIDTH 5 0
BBX 5 9 0 0
BITMAP
1140
1500
0100
8A40
8880
A480
6080
6080
5040
ENDCHAR
STARTCHAR napostrophe
ENCODING 329
SWIDTH 483 0
DWIDTH 5 0
BBX 5 10 0 0
BITMAP
2000
2000
1000
0100
8A40
8880
A480
6080
6080
5040
ENDCHAR
STARTCHAR Omacron
ENCODING 332
SWIDTH 382 0
DWIDTH 4 0
BBX 5 9 0 0
BITMAP
1940
0400
2600
5200
8200
8200
8200
8500
6400
ENDCHAR
STARTCHAR omacron
ENCODING 333
SWIDTH 266 0
DWIDTH 3 0
BBX 5 8 -1 0
BITMAP
5940
0000
1900
1100
2200
2200
2500
2800
ENDCHAR
STARTCHAR Obreve
ENCODING 334
SWIDTH 382 0
DWIDTH 4 0
BBX 4 9 0 0
BITMAP
25
18
26
52
82
82
82
85
64
ENDCHAR
STARTCHAR obreve
ENCODING 335
SWIDTH 266 0
DWIDTH 3 0
BBX 3 8 0 0
BITMAP
58
10
64
44
88
88
94
A0
ENDCHAR
STARTCHAR Ohungarumlaut
ENCODING 336
SWIDTH 382 0
DWIDTH 4 0
BBX 4 10 0 0
BITMAP
05
06
04
26
52
82
82
82
85
64
ENDCHAR
STARTCHAR ohungarumlaut
ENCODING 337
SWIDTH 266 0
DWIDTH 3 0
BBX 3 9 0 0
BITMAP
14
54
00
64
44
88
88
94
A0
ENDCHAR
STARTCHAR OE
ENCODING 338
SWIDTH 732 0
DWIDTH 8 0
BBX 8 8 0 0
BITMAP
0514
2790
5200
8214
8290
8341
8658
6990
ENDCHAR
STARTCHAR oe
ENCODING 339
SWIDTH 628 0
DWIDTH 7 0
BBX 7 6 0 0
BITMAP
65A0
4A60
8A40
8D08
9924
A280
ENDCHAR
STARTCHAR Racute
ENCODING 340
SWIDTH 503 0
DWIDTH 6 0
BBX 6 10 0 0
BITMAP
0200
4640
A590
8140
8900
A000
A400
4640
4050
4000
ENDCHAR
STARTCHAR racute
ENCODING 341
SWIDTH 396 0
DWIDTH 4 0
BBX 4 8 0 0
BITMAP
08
04
46
98
60
60
30
20
ENDCHAR
STARTCHAR Rcommaaccent
ENCODING 342
SWIDTH 503 0
DWIDTH 6 0
BBX 6 13 0 -4
BITMAP
4540
A590
8140
8900
A000
A400
4640
4050
4000
0000
0800
0800
0400
ENDCHAR
STARTCHAR rcommaaccent
ENCODING 343
SWIDTH 396 0
DWIDTH 4 0
BBX 4 9 0 -3
BITMAP
46
98
60
60
30
20
00
14
04
ENDCHAR
STARTCHAR Rcaron
ENCODING 344
SWIDTH 503 0
DWIDTH 6 0
BBX 6 11 0 0
BITMAP
1040
0900
4540
A590
8140
8900
A000
A400
4640
4050
4000
ENDCHAR
STARTCHAR rcaron
ENCODING 345
SWIDTH 396 0
DWIDTH 4 0
BBX 4 9 0 0
BITMAP
41
24
00
46
98
60
60
30
20
ENDCHAR
STARTCHAR Sacute
ENCODING 346
SWIDTH 541 0
DWIDTH 6 0
BBX 6 10 0 0
BITMAP
0200
0400
0640
2000
8000
8000
5500
0160
0190
1900
ENDCHAR
STARTCHAR sacute
ENCODING 347
SWIDTH 366 0
DWIDTH 4 0
BBX 4 8 0 0
BITMAP
08
10
04
60
80
AA
06
18
ENDCHAR
STARTCHAR Scircumflex
ENCODING 348
SWIDTH 541 0
DWIDTH 6 0
BBX 6 11 0 0
BITMAP
0A00
1480
1040
0640
2000
8000
8000
5500
0160
0190
1900
ENDCHAR
STARTCHAR scircumflex
ENCODING 349
SWIDTH 366 0
DWIDTH 4 0
BBX 4 9 0 0
BITMAP
28
51
41
04
60
80
AA
06
18
ENDCHAR
STARTCHAR Scedilla
ENCODING 350
SWIDTH 541 0
DWIDTH 6 0
BBX 6 12 0 -4
BITMAP
0640
2000
8000
8000
5500
0160
0190
1900
0140
0090
0070
0040
ENDCHAR
STARTCHAR scedilla
ENCODING 351
SWIDTH 366 0
DWIDTH 4 0
BBX 4 10 0 -4
BITMAP
04
60
80
AA
06
18
24
09
07
04
ENDCHAR
STARTCHAR Scaron
ENCODING 352
SWIDTH 541 0
DWIDTH 6 0
BBX 6 10 0 0
BITMAP
1040
0900
0A40
2000
8000
8000
5500
0160
0190
1900
ENDCHAR
STARTCHAR scaron
ENCODING 353
SWIDTH 366 0
DWIDTH 4 0
BBX 4 8 0 0
BITMAP
41
24
14
60
80
AA
06
18
ENDCHAR
STARTCHAR Tcommaaccent
ENCODING 354
SWIDTH 595 0
DWIDTH 7 0
BBX 8 12 0 -4
BITMAP
0669
6640
0100
0140
0140
0080
0080
0080
0000
0080
0080
0040
ENDCHAR
STARTCHAR tcommaaccent
ENCODING 355
SWIDTH 268 0
DWIDTH 3 0
BBX 4 12 -1 -4
BITMAP
14
14
2A
64
14
14
14
14
00
08
08
04
ENDCHAR
STARTCHAR Tcaron
ENCODING 356
SWIDTH 595 0
DWIDTH 7 0
BBX 8 11 0 0
BITMAP
0410
0240
0000
0669
6640
0100
0140
0140
0080
0080
0080
ENDCHAR
STARTCHAR Tbar
ENCODING 358
SWIDTH 595 0
DWIDTH 7 0
BBX 8 8 0 0
BITMAP
0669
6640
0250
0540
0140
0080
0080
0080
ENDCHAR
STARTCHAR Utilde
ENCODING 360
SWIDTH 450 0
DWIDTH 5 0
BBX 5 10 0 -1
BITMAP
2840
4640
4040
8180
8180
8240
8240
4580
2480
0040
ENDCHAR
STARTCHAR utilde
ENCODING 361
SWIDTH 387 0
DWIDTH 4 0
BBX 4 8 0 0
BITMAP
61
49
00
82
82
86
4A
26
ENDCHAR
STARTCHAR Umacron
ENCODING 362
SWIDTH 450 0
DWIDTH 5 0
BBX 5 9 0 -1
BITMAP
5940
4040
8180
8180
8240
8240
4580
2480
0040
ENDCHAR
STARTCHAR umacron
ENCODING 363
SWIDTH 387 0
DWIDTH 4 0
BBX 4 8 0 0
BITMAP
69
00
00
82
82
86
4A
26
ENDCHAR
STARTCHAR Ubreve
ENCODING 364
SWIDTH 450 0
DWIDTH 5 0
BBX 5 9 0 -1
BITMAP
1600
4440
8180
8180
8240
8240
4580
2480
0040
ENDCHAR
STARTCHAR ubreve
ENCODING 365
SWIDTH 387 0
DWIDTH 4 0
BBX 4 8 0 0
BITMAP
25
04
00
82
82
86
4A
26
ENDCHAR
STARTCHAR Uring
ENCODING 366
SWIDTH 450 0
DWIDTH 5 0
BBX 5 11 0 -1
BITMAP
0400
2200
1400
4040
8180
8180
8240
8240
4580
2480
0040
ENDCHAR
STARTCHAR uring
ENCODING 367
SWIDTH 387 0
DWIDTH 4 0
BBX 4 8 0 0
BITMAP
14
25
15
82
82
86
4A
26
ENDCHAR
STARTCHAR Uhungarumlaut
ENCODING 368
SWIDTH 450 0
DWIDTH 5 0
BBX 5 10 0 -1
BITMAP
0500
1500
4040
8180
8180
8240
8240
4580
2480
0040
ENDCHAR
STARTCHAR uhungarumlaut
ENCODING 369
SWIDTH 387 0
DWIDTH 4 0
BBX 4 8 0 0
BITMAP
14
18
00
82
82
86
4A
26
ENDCHAR
STARTCHAR Uogonek
ENCODING 370
SWIDTH 450 0
DWIDTH 5 0
BBX 6 10 0 -3
BITMAP
4040
8180
8180
8240
8240
4580
2480
0180
0200
0190
ENDCHAR
STARTCHAR uogonek
ENCODING 371
SWIDTH 387 0
DWIDTH 4 0
BBX 5 8 0 -3
BITMAP
8200
8200
8600
4A00
2600
0500
0840
0240
ENDCHAR
STARTCHAR Wcircumflex
ENCODING 372
SWIDTH 878 0
DWIDTH 10 0
BBX 10 11 0 0
BITMAP
009000
011400
010400
000050
405080
506080
20A040
215540
260A00
1A0600
090000
ENDCHAR
STARTCHAR wcircumflex
ENCODING 373
SWIDTH 566 0
DWIDTH 6 0
BBX 6 10 0 0
BITMAP
0A00
1540
1040
0000
4410
4A20
2960
28A0
1860
0810
ENDCHAR
STARTCHAR Ycircumflex
ENCODING 374
SWIDTH 483 0
DWIDTH 5 0
BBX 5 12 0 0
BITMAP
1900
2100
1040
0040
0080
8080
6140
1A00
0600
0500
0800
0800
ENDCHAR
STARTCHAR ycircumflex
ENCODING 375
SWIDTH 363 0
DWIDTH 4 0
BBX 4 14 0 -4
BITMAP
24
55
41
00
01
82
22
16
0A
06
02
01
01
05
ENDCHAR
STARTCHAR Ydieresis
ENCODING 376
SWIDTH 483 0
DWIDTH 5 0
BBX 5 9 0 0
BITMAP
0040
1180
8080
6140
1A00
0600
0500
0800
0800
ENDCHAR
STARTCHAR Zacute
ENCODING 377
SWIDTH 670 0
DWIDTH 7 0
BBX 7 10 0 0
BITMAP
0200
0100
5550
0060
0080
0240
0500
1800
2000
AAA8
ENDCHAR
STARTCHAR zacute
ENCODING 378
SWIDTH 618 0
DWIDTH 7 0
BBX 7 8 0 0
BITMAP
0100
0100
0100
6A40
0200
0500
0814
1E94
ENDCHAR
STARTCHAR Zdotaccent
ENCODING 379
SWIDTH 670 0
DWIDTH 7 0
BBX 7 9 0 0
BITMAP
0100
5550
0060
0080
0240
0500
1800
2000
AAA8
ENDCHAR
STARTCHAR zdotaccent
ENCODING 380
SWIDTH 618 0
DWIDTH 7 0
BBX 7 7 0 0
BITMAP
0100
0100
6A40
0200
0500
0814
1E94
ENDCHAR
STARTCHAR Zcaron
ENCODING 381
SWIDTH 670 0
DWIDTH 7 0
BBX 7 10 0 0
BITMAP
0410
0140
5650
0060
0080
0240
0500
1800
2000
AAA8
ENDCHAR
STARTCHAR zcaron
ENCODING 382
SWIDTH 618 0
DWIDTH 7 0
BBX 7 8 0 0
BITMAP
1040
0900
0100
6A40
0200
0500
0814
1E94
ENDCHAR
STARTCHAR florin
ENCODING 402
SWIDTH 345 0
DWIDTH 4 0
BBX 4 13 0 -3
BITMAP
18
24
20
20
25
64
20
20
20
20
20
20
A0
ENDCHAR
STARTCHAR AEacute
ENCODING 508
SWIDTH 708 0
DWIDTH 8 0
BBX 8 10 0 0
BITMAP
0200
0400
3264
2640
5600
5610
5740
6705
8264
4180
ENDCHAR
STARTCHAR aeacute
ENCODING 509
SWIDTH 705 0
DWIDTH 8 0
BBX 8 8 0 0
BITMAP
0080
0100
19A4
2664
5B80
8B05
A214
9190
ENDCHAR
STARTCHAR Oslashacute
ENCODING 510
SWIDTH 382 0
DWIDTH 4 0
BBX 4 11 0 -1
BITMAP
08
04
05
2A
56
8A
96
92
A5
74
40
ENDCHAR
STARTCHAR oslashacute
ENCODING 511
SWIDTH 266 0
DWIDTH 3 0
BBX 3 9 0 -1
BITMAP
14
14
68
58
98
98
94
A0
40
ENDCHAR
STARTCHAR Scommaaccent
ENCODING 536
SWIDTH 541 0
DWIDTH 6 0
BBX 6 12 0 -4
BITMAP
0640
2000
8000
8000
5500
0160
0190
1900
0000
0500
0500
0400
ENDCHAR
STARTCHAR scommaaccent
ENCODING 537
SWIDTH 366 0
DWIDTH 4 0
BBX 4 10 0 -4
BITMAP
04
60
80
AA
06
18
00
14
14
10
ENDCHAR
STARTCHAR circumflex
ENCODING 710
SWIDTH 390 0
DWIDTH 4 0
BBX 4 3 0 7
BITMAP
28
52
41
ENDCHAR
STARTCHAR caron
ENCODING 711
SWIDTH 390 0
DWIDTH 4 0
BBX 3 2 1 7
BITMAP
44
54
ENDCHAR
STARTCHAR breve
ENCODING 728
SWIDTH 390 0
DWIDTH 4 0
BBX 3 2 1 6
BITMAP
A4
50
ENDCHAR
STARTCHAR dotaccent
ENCODING 729
SWIDTH 128 0
DWIDTH 1 0
BBX 1 1 0 6
BITMAP
40
ENDCHAR
STARTCHAR ring
ENCODING 730
SWIDTH 266 0
DWIDTH 3 0
BBX 3 3 0 5
BITMAP
10
88
50
ENDCHAR
STARTCHAR ogonek
ENCODING 731
SWIDTH 366 0
DWIDTH 4 0
BBX 3 3 1 -3
BITMAP
80
80
64
ENDCHAR
STARTCHAR tilde
ENCODING 732
SWIDTH 458 0
DWIDTH 5 0
BBX 5 2 0 6
BITMAP
6540
4A00
ENDCHAR
STARTCHAR hungarumlaut
ENCODING 733
SWIDTH 239 0
DWIDTH 3 0
BBX 3 2 0 5
BITMAP
54
60
ENDCHAR
STARTCHAR Wgrave
ENCODING 7808
SWIDTH 878 0
DWIDTH 10 0
BBX 10 10 0 0
BITMAP
004000
001000
000050
405080
506080
20A040
215540
260A00
1A0600
090000
ENDCHAR
STARTCHAR wgrave
ENCODING 7809
SWIDTH 566 0
DWIDTH 6 0
BBX 6 8 0 0
BITMAP
0400
0100
4410
4A20
2960
28A0
1860
0810
ENDCHAR
STARTCHAR Wacute
ENCODING 7810
SWIDTH 878 0
DWIDTH 10 0
BBX 10 10 0 0
BITMAP
008000
004000
000050
405080
506080
20A040
215540
260A00
1A0600
090000
ENDCHAR
STARTCHAR wacute
ENCODING 7811
SWIDTH 566 0
DWIDTH 6 0
BBX 6 8 0 0
BITMAP
0200
0100
4410
4A20
2960
28A0
1860
0810
ENDCHAR
STARTCHAR Wdieresis
ENCODING 7812
SWIDTH 878 0
DWIDTH 10 0
BBX 10 9 0 0
BITMAP
005000
000050
405080
506080
20A040
215540
260A00
1A0600
090000
ENDCHAR
STARTCHAR wdieresis
ENCODING 7813
SWIDTH 566 0
DWIDTH 6 0
BBX 6 8 0 0
BITMAP
0500
0000
4410
4A20
2960
28A0
1860
0810
ENDCHAR
STARTCHAR Ygrave
ENCODING 7922
SWIDTH 483 0
DWIDTH 5 0
BBX 5 11 0 0
BITMAP
0800
0000
0040
0080
8080
6140
1A00
0600
0500
0800
0800
ENDCHAR
STARTCHAR ygrave
ENCODING 7923
SWIDTH 363 0
DWIDTH 4 0
BBX 4 12 0 -4
BITMAP
20
00
01
82
22
16
0A
06
02
01
01
05
ENDCHAR
STARTCHAR endash
ENCODING 8211
SWIDTH 399 0
DWIDTH 4 0
BBX 4 2 0 2
BITMAP
05
65
ENDCHAR
STARTCHAR emdash
ENCODING 8212
SWIDTH 549 0
DWIDTH 6 0
BBX 5 2 0 2
BITMAP
0040
6A40
ENDCHAR
STARTCHAR quoteleft
ENCODING 8216
SWIDTH 155 0
DWIDTH 2 0
BBX 1 3 0 4
BITMAP
40
80
40
ENDCHAR
STARTCHAR quoteright
ENCODING 8217
SWIDTH 155 0
DWIDTH 2 0
BBX 1 3 0 4
BITMAP
40
80
40
ENDCHAR
STARTCHAR quotesinglbase
ENCODING 8218
SWIDTH 155 0
DWIDTH 2 0
BBX 2 3 0 0
BITMAP
40
50
40
ENDCHAR
STARTCHAR quotedblleft
ENCODING 8220
SWIDTH 212 0
DWIDTH 2 0
BBX 2 4 0 5
BITMAP
50
50
50
40
ENDCHAR
STARTCHAR quotedblright
ENCODING 8221
SWIDTH 212 0
DWIDTH 2 0
BBX 2 4 0 5
BITMAP
50
50
50
40
ENDCHAR
STARTCHAR quotedblbase
ENCODING 8222
SWIDTH 212 0
DWIDTH 2 0
BBX 2 3 0 0
BITMAP
90
50
50
ENDCHAR
STARTCHAR dagger
ENCODING 8224
SWIDTH 268 0
DWIDTH 3 0
BBX 4 8 -1 0
BITMAP
14
14
2A
64
14
14
14
14
ENDCHAR
STARTCHAR daggerdbl
ENCODING 8225
SWIDTH 326 0
DWIDTH 4 0
BBX 4 9 0 0
BITMAP
10
20
20
29
A5
74
20
20
20
ENDCHAR
STARTCHAR bullet
ENCODING 8226
SWIDTH 189 0
DWIDTH 2 0
BBX 2 2 0 2
BITMAP
60
50
ENDCHAR
STARTCHAR ellipsis
ENCODING 8230
SWIDTH 387 0
DWIDTH 4 0
BBX 4 1 0 0
BITMAP
55
ENDCHAR
STARTCHAR guilsinglleft
ENCODING 8249
SWIDTH 409 0
DWIDTH 5 0
BBX 5 6 0 1
BITMAP
0140
0900
2400
6000
1900
0100
ENDCHAR
STARTCHAR guilsinglright
ENCODING 8250
SWIDTH 450 0
DWIDTH 5 0
BBX 4 6 0 1
BITMAP
64
06
01
05
24
50
ENDCHAR
STARTCHAR fraction
ENCODING 8260
SWIDTH 306 0
DWIDTH 3 0
BBX 3 9 0 -1
BITMAP
04
08
04
10
20
10
40
40
40
ENDCHAR
STARTCHAR Euro
ENCODING 8364
SWIDTH 589 0
DWIDTH 6 0
BBX 6 8 0 0
BITMAP
0280
0800
0800
6900
2100
6500
2020
1A90
ENDCHAR
STARTCHAR trademark
ENCODING 8482
SWIDTH 1278 0
DWIDTH 14 0
BBX 14 9 0 0
BITMAP
00010040
066B4080
66418180
01015140
01422140
01421950
00820450
00820010
00820020
ENDCHAR
STARTCHAR minus
ENCODING 8722
SWIDTH 358 0
DWIDTH 4 0
BBX 3 1 1 3
BITMAP
64
ENDCHAR
STARTCHAR commaaccent
ENCODING 63171
SWIDTH 450 0
DWIDTH 5 0
BBX 1 3 2 -4
BITMAP
80
80
40
ENDCHAR
STARTCHAR fi
ENCODING 64257
SWIDTH 409 0
DWIDTH 5 0
BBX 4 10 0 0
BITMAP
18
24
21
20
26
66
22
22
22
22
ENDCHAR
STARTCHAR fl
ENCODING 64258
SWIDTH 416 0
DWIDTH 5 0
BBX 4 10 0 0
BITMAP
18
26
21
21
26
66
21
21
21
21
ENDCHAR
STARTCHAR .notdef
ENCODING -1
SWIDTH 450 0
DWIDTH 5 0
BBX 1 1 0 0
BITMAP
00
ENDCHAR
STARTCHAR .null
ENCODING -1
SWIDTH 0 0
DWIDTH 0 0
BBX 1 1 0 0
BITMAP
00
ENDCHAR
STARTCHAR nonmarkingreturn
ENCODING -1
SWIDTH 450 0
DWIDTH 5 0
BBX 1 1 0 0
BITMAP
00
ENDCHAR
ENDFONT
